<?xml version="1.0" standalone="no"?>
<!DOCTYPE svg PUBLIC "-//W3C//DTD SVG 20010904//EN"
 "http://www.w3.org/TR/2001/REC-SVG-20010904/DTD/svg10.dtd">
<svg version="1.0" xmlns="http://www.w3.org/2000/svg"
 width="464.000000pt" height="371.000000pt" viewBox="0 0 464.000000 371.000000"
 preserveAspectRatio="xMidYMid meet">

<g transform="translate(0.000000,371.000000) scale(0.100000,-0.100000)"
fill="#000000" stroke="none">
<path d="M2240 3159 c-81 -6 -132 -18 -223 -51 -78 -28 -67 -33 13 -6 88 29
312 32 410 5 260 -71 471 -269 556 -522 22 -65 28 -104 32 -208 5 -146 -5
-216 -49 -325 -52 -132 -134 -242 -243 -328 -79 -63 -79 -69 2 -18 228 146
362 394 362 669 0 471 -384 821 -860 784z"/>
<path d="M2330 2858 c4 -18 15 -53 24 -78 15 -42 15 -43 0 -25 l-17 20 8 -20
c4 -11 10 -40 13 -64 l5 -44 -43 47 c-44 48 -104 88 -150 101 l-25 7 28 -26
c30 -30 37 -46 10 -25 -10 7 -4 -2 12 -20 17 -19 24 -30 16 -26 -11 6 -13 4
-8 -8 5 -13 0 -15 -27 -10 -20 3 -36 1 -40 -6 -5 -7 3 -11 21 -11 19 0 24 -3
15 -9 -9 -5 1 -14 35 -29 26 -12 39 -21 29 -22 -20 0 -20 0 0 -15 14 -10 1 -8
-46 6 -91 28 -167 14 -215 -42 -11 -12 -14 -19 -7 -15 7 4 27 12 45 16 29 9
30 8 13 -5 -24 -18 -21 -18 29 0 58 21 75 19 45 -6 -14 -11 -20 -18 -13 -15
22 12 103 23 97 15 -3 -5 5 -9 18 -10 17 0 12 -5 -22 -20 -55 -25 -96 -62
-121 -111 -26 -51 -24 -66 6 -38 14 13 25 20 25 15 0 -5 19 9 41 30 23 22 39
32 36 23 -9 -25 2 -22 35 9 15 15 28 21 28 14 0 -7 5 -9 10 -6 24 15 6 -14
-31 -50 -22 -22 -49 -56 -59 -75 -24 -46 -34 -118 -21 -150 9 -24 10 -24 10
-3 1 34 31 103 45 103 7 0 22 19 34 43 13 23 21 32 18 20 -6 -32 1 -29 20 9
22 42 91 115 100 106 12 -13 -27 -130 -132 -393 -61 -153 -114 -303 -128 -365
-28 -118 -49 -278 -46 -358 1 -36 -2 -52 -9 -47 -6 3 -11 18 -11 33 0 19 -3
23 -9 13 -20 -31 -141 223 -194 409 -24 80 -50 233 -60 343 -4 44 -3 47 12 33
9 -8 25 -38 36 -66 15 -38 21 -46 26 -33 4 12 9 2 14 -31 5 -31 10 -43 16 -35
5 8 10 -7 15 -41 6 -47 8 -51 16 -29 17 44 4 124 -30 178 -32 52 -24 78 11 34
10 -12 22 -22 27 -20 4 1 26 -18 49 -42 23 -24 41 -42 41 -39 0 2 -7 27 -15
54 -14 47 -45 87 -90 113 -19 11 -18 12 4 5 16 -4 21 -3 16 5 -4 8 6 7 28 -3
33 -13 35 -13 30 2 -6 13 0 12 31 -6 20 -12 34 -18 31 -12 -9 15 8 12 34 -6
l23 -17 -17 27 c-28 42 -72 60 -144 59 -35 0 -58 3 -51 7 10 6 9 9 -1 13 -8 3
-3 6 11 7 14 1 41 8 60 15 l35 13 -31 7 c-37 8 -39 27 -8 60 22 24 22 25 3 25
-28 0 -87 -26 -126 -56 -37 -28 -39 -27 -18 22 9 21 10 32 3 28 -6 -4 3 18 21
49 25 43 29 57 17 57 -28 0 -67 -45 -85 -98 l-18 -54 -12 33 c-17 49 -60 99
-97 115 -46 19 -51 18 -27 -8 11 -13 28 -38 38 -56 l16 -34 -23 7 c-20 5 -18
1 12 -26 22 -20 28 -29 15 -25 -17 6 -16 4 5 -20 l25 -27 -46 27 c-67 38 -161
32 -220 -16 -13 -11 -17 -16 -9 -12 22 12 168 15 150 4 -11 -7 -7 -10 17 -10
17 0 38 -6 45 -13 7 -8 20 -16 28 -19 8 -3 -5 -8 -30 -12 -111 -19 -169 -88
-177 -214 l-4 -67 17 45 c18 49 30 68 21 32 -3 -12 -1 -20 4 -16 5 3 9 10 9
16 0 15 41 80 47 74 3 -2 0 -15 -7 -28 -13 -27 -5 -17 45 54 23 33 31 39 33
25 3 -15 6 -16 20 -5 14 11 15 10 8 -7 -4 -11 -9 -27 -11 -35 -2 -8 -8 -28
-14 -43 -6 -16 -7 -26 -2 -23 5 3 6 -15 3 -41 -3 -33 -2 -44 7 -39 7 5 11 0
11 -13 0 -11 5 -23 10 -26 6 -3 10 2 10 12 0 15 2 15 9 4 7 -11 11 -5 17 23 4
27 9 34 15 24 6 -8 9 1 10 27 0 32 2 36 9 20 7 -15 9 -8 11 30 1 28 6 -5 10
-72 15 -218 77 -454 164 -630 36 -70 39 -82 21 -70 -11 8 -34 17 -51 21 l-30
8 35 -24 c19 -13 36 -31 38 -41 3 -14 -1 -15 -26 -6 -24 8 -37 7 -61 -6 -42
-21 -39 -26 13 -19 38 6 45 4 56 -16 6 -12 9 -24 6 -27 -10 -10 -120 -33 -159
-33 -44 0 -92 22 -107 49 -27 51 -5 136 49 195 l26 29 -30 -7 c-118 -28 -200
-127 -227 -274 -10 -55 -9 -64 13 -108 20 -40 34 -54 79 -76 186 -92 569 -34
987 149 81 36 102 48 87 54 -42 15 -241 59 -269 59 -59 0 -60 16 -3 45 47 24
49 26 18 20 -19 -4 -52 -13 -73 -20 -33 -11 -38 -11 -33 1 16 40 17 48 0 27
-24 -33 -34 -28 -34 16 0 51 -20 108 -31 89 -5 -7 -9 -29 -10 -48 -1 -74 -16
-77 -24 -5 -11 95 0 264 25 385 19 96 154 522 185 585 l15 30 0 -30 c1 -40 28
-146 30 -120 2 14 4 11 9 -10 l7 -30 19 37 c10 20 21 35 25 33 21 -13 35 183
15 215 -3 5 -2 10 4 10 5 0 15 -8 20 -17 9 -16 10 -15 11 6 0 36 24 11 52 -56
19 -47 23 -52 28 -32 5 19 10 11 27 -41 12 -36 22 -56 23 -45 1 33 20 -4 20
-40 1 -50 16 -62 23 -18 11 66 8 148 -9 196 -21 61 -86 119 -156 140 l-53 15
33 7 c25 6 30 10 20 17 -8 6 10 8 52 4 42 -3 56 -2 40 4 l-25 8 26 1 c15 1 45
-6 68 -14 23 -8 39 -10 36 -5 -10 16 7 11 55 -16 l45 -25 -33 34 c-74 76 -179
103 -272 68 l-55 -20 35 30 c22 18 27 27 15 23 -27 -10 -14 4 32 33 27 17 31
23 16 20 -13 -3 -23 -3 -23 0 0 17 45 74 73 92 l32 21 -33 0 c-62 0 -134 -51
-181 -130 l-21 -35 0 53 c0 63 -19 113 -56 147 -36 33 -43 32 -34 -7z"/>
<path d="M1465 2833 c34 -5 65 -29 65 -50 0 -10 5 -11 19 -3 30 16 52 12 79
-12 24 -22 24 -23 14 -2 -13 25 -32 34 -71 34 -15 0 -36 9 -46 20 -12 14 -29
20 -54 19 -34 -2 -34 -2 -6 -6z"/>
<path d="M1573 2644 c-25 -22 -25 -24 -3 -10 35 23 78 20 114 -8 l32 -24 29
24 c35 28 80 31 115 8 22 -14 22 -12 -3 10 -33 31 -70 33 -112 8 -29 -18 -31
-18 -60 0 -42 25 -79 23 -112 -8z"/>
<path d="M4007 2199 l-42 -41 62 34 c38 20 57 36 50 40 -20 13 -26 10 -70 -33z"/>
<path d="M3960 2209 c-19 -12 -81 -64 -136 -115 l-102 -94 -160 -29 c-146 -26
-165 -32 -202 -63 l-42 -33 131 -3 c72 -1 130 -6 130 -10 -3 -18 -281 -272
-298 -272 -10 0 -49 22 -87 50 -51 37 -71 47 -81 38 -7 -6 -13 -16 -13 -22 0
-8 74 -128 96 -154 14 -18 142 89 347 287 51 50 70 63 76 52 6 -9 11 -10 15
-2 4 6 2 11 -5 11 -8 0 -9 3 -3 9 5 5 24 7 43 3 l33 -7 -166 -139 c-91 -77
-166 -141 -166 -144 0 -5 2 -3 68 47 23 18 42 31 42 28 0 -4 -194 -177 -229
-204 -28 -21 60 -3 99 21 19 11 120 92 225 179 104 87 195 161 201 163 7 3 80
-29 163 -70 87 -44 151 -71 151 -64 0 25 -30 70 -106 159 -42 49 -75 91 -73
92 22 15 139 119 161 142 29 31 63 106 57 124 -2 6 -62 -34 -134 -89 -111 -85
-136 -100 -168 -100 -35 0 -36 1 -25 20 7 11 16 20 21 20 4 0 5 -4 2 -10 -3
-5 -1 -10 5 -10 6 0 10 6 9 13 -3 17 11 47 22 47 4 0 5 -7 2 -17 -4 -11 -3
-14 6 -9 7 5 10 13 8 20 -3 7 25 45 62 84 37 40 64 72 61 72 -3 0 -21 -10 -40
-21z"/>
<path d="M3945 2140 c-3 -5 -1 -10 4 -10 6 0 11 5 11 10 0 6 -2 10 -4 10 -3 0
-8 -4 -11 -10z"/>
<path d="M3900 2099 c0 -5 5 -7 10 -4 6 3 10 8 10 11 0 2 -4 4 -10 4 -5 0 -10
-5 -10 -11z"/>
<path d="M3587 1813 c-4 -3 -7 -11 -7 -17 0 -6 5 -5 12 2 6 6 9 14 7 17 -3 3
-9 2 -12 -2z"/>
<path d="M3545 1770 c-3 -5 -2 -10 4 -10 5 0 13 5 16 10 3 6 2 10 -4 10 -5 0
-13 -4 -16 -10z"/>
<path d="M3505 1730 c-3 -5 -2 -10 4 -10 5 0 13 5 16 10 3 6 2 10 -4 10 -5 0
-13 -4 -16 -10z"/>
<path d="M3467 1703 c-4 -3 -7 -11 -7 -17 0 -6 5 -5 12 2 6 6 9 14 7 17 -3 3
-9 2 -12 -2z"/>
<path d="M3425 1660 c-3 -5 -1 -10 4 -10 6 0 11 5 11 10 0 6 -2 10 -4 10 -3 0
-8 -4 -11 -10z"/>
<path d="M3288 1525 c-44 -16 -216 -152 -178 -140 50 15 138 67 186 110 52 47
51 52 -8 30z"/>
<path d="M1444 1288 c-149 -201 -165 -389 -41 -479 124 -90 350 -100 638 -29
302 75 657 251 900 448 113 91 114 101 3 31 -343 -217 -770 -375 -1073 -398
-170 -12 -299 9 -382 64 -92 60 -104 195 -33 344 22 44 39 81 37 81 -2 0 -24
-28 -49 -62z"/>
</g>
</svg>
